PathFileType	4	(X/Y/Z)	Patient4_TMGait_0pt7_02_right_07.trc.trc
DataRate	CameraRate	NumFrames	NumMarkers	Units	OrigDataRate	OrigDataStartFrame	OrigNumFrames
86.956521739130	86.956521739130	4	33	mm	86.956521739130	124	       141
Frame#	Time	Sacral			L.Shoulder			Chest			R.Shoulder			Neck			R.ASIS			L.ASIS			R.Thigh.Superior			R.Thigh.Lateral			R.Thigh.Inferior			R.Patella			L.Thigh.Superior			L.Thigh.Lateral			L.Thigh.Inferior			L.Patella			L.Shank.Superior			L.Shank.Lateral			L.Shank.Inferior			R.Shank.Superior			R.Shank.Lateral			R.Shank.Inferior			R.Heel			R.Midfoot.Superior			R.Midfoot.Lateral			R.Toe			L.Heel			L.Midfoot.Lateral			L.Midfoot.Superior			L.Toe			L.Elbow			L.Wrist			R.Elbow			R.Wrist			
		X1	Y1	Z1	X2	Y2	Z2	X3	Y3	Z3	X4	Y4	Z4	X5	Y5	Z5	X6	Y6	Z6	X7	Y7	Z7	X8	Y8	Z8	X9	Y9	Z9	X10	Y10	Z10	X11	Y11	Z11	X12	Y12	Z12	X13	Y13	Z13	X14	Y14	Z14	X15	Y15	Z15	X16	Y16	Z16	X17	Y17	Z17	X18	Y18	Z18	X19	Y19	Z19	X20	Y20	Z20	X21	Y21	Z21	X22	Y22	Z22	X23	Y23	Z23	X24	Y24	Z24	X25	Y25	Z25	X26	Y26	Z26	X27	Y27	Z27	X28	Y28	Z28	X29	Y29	Z29	X30	Y30	Z30	X31	Y31	Z31	X32	Y32	Z32	X33	Y33	Z33	

124	8.454500000000	781.389844845500	991.685713461009	457.899597621853	991.634345623722	1416.184965859266	290.578235941674	1077.357921418197	1338.716498046532	459.550406149986	981.543649921453	1420.984835502591	623.754404540266	983.757134940125	1474.418988061312	442.676606443427	998.850670258828	920.335184188268	590.019635290389	1003.720270502673	947.128781808315	313.414773586207	1073.728203848962	752.789931159489	566.623658128972	1024.907920784225	629.831340493998	638.106722024118	1121.420130306701	596.344390322527	565.916325403446	1154.113030236498	512.707684087471	583.513935948269	988.938185985668	718.540598257968	336.415303127626	864.929247070921	634.721447412557	268.934329414308	914.962447462547	535.152246705889	333.072006381489	897.973282135964	469.880396190084	340.294366650580	861.264885772604	408.241959150172	331.378501554379	758.193010169046	306.062983816975	278.099319102490	793.767714453253	189.184431239823	350.984937082314	1137.489414454342	421.967422276247	593.450965183688	1078.242347488366	308.450291078439	651.155220722243	1150.899189087459	222.299815941638	604.946666779233	1057.065314010586	41.953443344022	572.269530825027	1220.409861320511	109.118004681637	618.552788844046	1137.703468478332	38.583157305832	649.342904950459	1342.171565204259	67.990685584504	650.294541397041	652.879554690114	38.940532323815	391.251523650686	728.588961592982	34.824442507612	312.505181270789	811.246734181195	94.940760951903	340.969518735803	940.723256724717	40.912879488863	315.716213510691	1036.856639596990	1100.746113250622	122.422700647289	1281.012920854005	1123.800713501296	181.056937258679	802.475413801143	1132.834333168336	740.880309579724	739.857874011926	879.761325766089	759.668557923212	
125	8.466000000000	783.099666716421	989.594238915597	461.096696871393	992.259588776176	1414.273942112680	293.497454105769	1078.327065711834	1337.199858630669	462.553960173939	982.276538019550	1419.465782146848	626.726259801015	984.639784401923	1472.750631783473	445.651020225272	1001.047171614050	918.173893976016	592.537398879041	1005.305040756966	945.538679796939	316.200209355346	1076.428660137141	750.709707278708	568.910955171248	1025.678592630462	627.368576613105	638.519953194931	1122.853611898127	594.300836867791	567.176299222904	1154.298422300983	509.969210616901	583.458442119644	990.009356120483	716.873327891902	338.463466486031	865.541544243307	633.472128852259	271.086028216449	915.119543877987	533.472161283806	335.141839891597	897.679079006413	467.608422722859	342.197897365714	859.560671196987	406.295826796711	333.094884096833	754.583152634593	306.248730091161	279.363154076007	787.687689713823	188.413549148427	351.627125489510	1137.227921245852	418.848004133130	593.223230608415	1076.822396073592	305.828452438695	650.516010709187	1148.069860841829	219.133430390977	603.738831680691	1051.229108993141	41.312564515603	570.872356507755	1215.523772488587	105.612052883601	616.758178552084	1131.586122963112	37.440263707203	648.281945297333	1336.713502240567	62.784564948291	648.934396520011	644.744631832590	39.507315316671	391.061404195078	720.537873582169	34.957590148663	312.466342840635	803.426856701503	94.887689809351	341.003440561805	932.728492963888	40.595881725621	315.647139431601	1035.393553364040	1098.542747095917	124.896726355501	1278.756898567568	1126.326790182947	184.151413293248	800.247207062798	1133.429328916259	742.922403585031	734.050723283216	881.128645868617	760.607471786884	
126	8.477500000000	784.646694593056	987.956685412732	464.355473212198	993.101525503287	1412.672926690307	296.468177065289	1079.448159970294	1335.942487619622	465.607329636928	983.253522469892	1418.270268281795	629.753395063525	985.790104629794	1471.448646939793	448.723768369422	1003.083571642362	916.519272852309	595.160469768982	1006.663004249801	944.221791749965	319.126740093466	1079.296658232054	749.488216608567	571.154225001122	1027.052830087483	625.809440613784	639.130924122025	1124.712149159258	593.089630210496	568.457131401803	1154.983512378266	507.851268573188	583.594992732963	991.526795041459	715.565918665506	340.708355081886	866.872740892644	632.189197059135	273.558894259663	916.413033528117	531.877274258902	337.418037863515	898.569555115737	465.231635175083	344.283098832476	858.852785460457	404.216734550471	334.996553633450	751.707991784253	306.680102932746	280.854705259795	782.059346237758	187.782200803383	352.317529571027	1137.139395779609	416.321043515533	593.142080971265	1075.384169455110	304.057156282132	650.379575751297	1144.559225655392	216.490710958748	602.751754188707	1043.972997404659	41.205392836431	569.899855137336	1209.345558085283	102.614873734818	615.324431219137	1124.132710286956	36.749500137531	647.566923410875	1329.966304242225	57.994184293593	647.782342599528	636.663241428885	40.625427570764	390.832816392615	712.528384208167	35.338737405094	312.424572690032	795.835671616393	94.908610302066	340.966543415482	924.756701158022	40.235371120405	315.564582365480	1033.300486539113	1096.187297137031	127.909802566887	1276.179741740632	1127.432916642102	187.169738416161	799.178903329758	1133.530322300705	744.901995883735	729.849201476354	881.881852268817	761.584358854811	
127	8.489000000000	786.021102583868	986.839929004951	467.636060582826	994.177720780062	1411.462199812899	299.460085857492	1080.710383687054	1334.993558295594	468.675875059561	984.488983089818	1417.471221997255	632.796417515639	987.210232173494	1470.570914779777	451.848899565910	1004.923401154516	915.448928148851	597.902665210826	1007.774907694821	943.265800231963	322.169649707915	1082.157938368771	749.085948437781	573.340255232349	1028.896921163566	625.136844088252	640.044385397128	1126.770904856413	592.604975726150	569.790612010120	1155.946284790898	506.328476310942	584.031699663419	993.430602808392	714.684295753185	343.134741545959	868.881626838638	630.928680657198	276.303421477549	918.846859296634	530.428106973881	339.823965436645	900.665697965902	462.806856140482	346.422394429489	859.142590092985	402.095470112705	336.980018430088	749.566861994920	307.462825088192	282.528044048123	776.940356327621	187.410924556437	352.997529831236	1137.092350348358	414.390605213709	593.292220821938	1073.930104889833	303.053825542403	650.797470857657	1140.531084786095	214.402292069855	602.054083027546	1035.821255367149	41.444016717739	569.351133641185	1202.257741406071	100.272158294095	614.321540892976	1115.862803420835	36.417210892348	647.197072471128	1322.367996205664	53.955760048490	646.921500413014	628.694751767542	42.489702476985	390.569098596794	704.592043464023	36.081752197181	312.377985010110	788.552330944977	95.044703682122	340.826361672885	916.808297923629	39.845568566911	315.475448511101	1030.549778069182	1093.776264043081	131.484737307836	1273.318494233829	1127.100560112358	190.125790574735	799.299116795487	1133.181864356256	746.838923537778	727.386737695378	882.032252443334	762.586918080065	
